<svg xmlns="http://www.w3.org/2000/svg" width="120" height="40.001" viewBox="0 0 120 40.001"><g id="pronto-logo" transform="translate(-124.902 -150.802)"><rect id="area" width="120" height="40" transform="translate(124.902 150.804)" fill="rgba(255,255,255,0)"></rect><g id="dark-blue" transform="translate(165.836 156.664)"><path id="Path_247" data-name="Path 247" d="M246.518,176.508a60.811,60.811,0,0,1,9.819-4.628c1.129-.447,2.237-.889,3.324-1.361A7.4,7.4,0,0,0,257.5,169.2a10.072,10.072,0,0,0-3.8-.665,10.651,10.651,0,0,0-5.242,1.267,12.837,12.837,0,0,0-3.867,3.266,14.263,14.263,0,0,0-2.388,4.488,16.139,16.139,0,0,0-.751,3.659A18.89,18.89,0,0,1,246.518,176.508Z" transform="translate(-241.454 -168.533)" fill="#162447"></path><path id="Path_248" data-name="Path 248" d="M263.792,203.508a63.414,63.414,0,0,1-10.344,5.02c-1.691.694-3.24,1.331-4.5,1.959a7.306,7.306,0,0,0,2.171,1.358,10.057,10.057,0,0,0,3.825.665,10.906,10.906,0,0,0,5.342-1.268,12.221,12.221,0,0,0,3.846-3.262,14.388,14.388,0,0,0,2.329-4.491,16.686,16.686,0,0,0,.648-2.953A14.881,14.881,0,0,1,263.792,203.508Z" transform="translate(-246.359 -189.476)" fill="#162447"></path><path id="Path_241" data-name="Path 241" d="M150.14,177.8a14.934,14.934,0,0,1-1,5.551,13.134,13.134,0,0,1-2.764,4.344,12.333,12.333,0,0,1-4.241,2.85,13.986,13.986,0,0,1-5.384,1.019,16.046,16.046,0,0,1-2.827-.251l-1.871,7.525H125.9l6.9-28.769a36.913,36.913,0,0,1,3.806-.895,25.453,25.453,0,0,1,4.636-.394,10.321,10.321,0,0,1,4.012.706,7.494,7.494,0,0,1,2.764,1.933,7.9,7.9,0,0,1,1.6,2.87A11.569,11.569,0,0,1,150.14,177.8Zm-15.09,8.525a8.668,8.668,0,0,0,1.746.167,7.1,7.1,0,0,0,2.953-.6,6.5,6.5,0,0,0,2.265-1.685,7.767,7.767,0,0,0,1.456-2.6,10.259,10.259,0,0,0,.521-3.347,5.575,5.575,0,0,0-.789-3.035,3,3,0,0,0-2.747-1.247,11.838,11.838,0,0,0-2.493.248Z" transform="translate(-165.836 -168.691)" fill="#162447"></path><path id="Path_242" data-name="Path 242" d="M211.552,174.674q-.829-.206-1.644-.4a11.385,11.385,0,0,0-2.388-.188,9.113,9.113,0,0,0-1.29.105,10.535,10.535,0,0,0-1.163.228l-4.033,16.8h-6.2l4.99-20.709q1.785-.581,4.01-1.1a22.127,22.127,0,0,1,5.012-.518,15.632,15.632,0,0,1,2.306.188,8.7,8.7,0,0,1,2.226.6Z" transform="translate(-210.949 -168.771)" fill="#162447"></path><path id="Path_243" data-name="Path 243" d="M307.6,170.272q.706-.206,1.56-.479c.569-.18,1.2-.345,1.912-.5s1.5-.276,2.369-.373a27.144,27.144,0,0,1,2.973-.145q4.867,0,6.714,2.827t.644,7.732l-2.826,11.812h-6.194l2.743-11.562q.252-1.082.4-2.1a5.142,5.142,0,0,0-.021-1.787,2.105,2.105,0,0,0-.769-1.249,2.959,2.959,0,0,0-1.848-.477,12.512,12.512,0,0,0-2.457.248l-4.03,16.926h-6.2Z" transform="translate(-281.447 -168.691)" fill="#162447"></path><path id="Path_244" data-name="Path 244" d="M371.274,152.566l6.442-1-1.581,6.444h6.9l-1.247,5.071H374.93l-1.83,7.651a8.89,8.89,0,0,0-.291,1.788,3.294,3.294,0,0,0,.206,1.436,1.836,1.836,0,0,0,.894.935,4.1,4.1,0,0,0,1.851.333,9.987,9.987,0,0,0,1.934-.188,14.507,14.507,0,0,0,1.891-.52l.457,4.739a21.969,21.969,0,0,1-2.7.789,15.619,15.619,0,0,1-3.445.335,9.507,9.507,0,0,1-4.452-.853A4.929,4.929,0,0,1,367.2,177.2a7.36,7.36,0,0,1-.582-3.388,21.9,21.9,0,0,1,.582-4.033Z" transform="translate(-323.355 -157.432)" fill="#162447"></path><path id="Path_245" data-name="Path 245" d="M417.39,191.567a10.085,10.085,0,0,1-3.827-.665,7.067,7.067,0,0,1-2.679-1.871,8.064,8.064,0,0,1-1.6-2.849,11.665,11.665,0,0,1-.539-3.637,16.1,16.1,0,0,1,.809-4.99,14.276,14.276,0,0,1,2.39-4.488,12.783,12.783,0,0,1,3.87-3.266,10.626,10.626,0,0,1,5.24-1.267,10.1,10.1,0,0,1,3.8.665,7.019,7.019,0,0,1,2.7,1.871,8.1,8.1,0,0,1,1.6,2.848,11.506,11.506,0,0,1,.542,3.638,16.459,16.459,0,0,1-.791,4.99,14.549,14.549,0,0,1-2.326,4.491,12.247,12.247,0,0,1-3.848,3.262A10.919,10.919,0,0,1,417.39,191.567Zm3.077-17.794a3.879,3.879,0,0,0-2.412.789,6.771,6.771,0,0,0-1.747,2,9.825,9.825,0,0,0-1.06,2.639,11.3,11.3,0,0,0-.353,2.723,6.561,6.561,0,0,0,.665,3.242,2.533,2.533,0,0,0,2.412,1.167,3.877,3.877,0,0,0,2.412-.792,6.748,6.748,0,0,0,1.744-1.994,9.813,9.813,0,0,0,1.061-2.641,11.416,11.416,0,0,0,.355-2.724,6.579,6.579,0,0,0-.665-3.242A2.538,2.538,0,0,0,420.467,173.773Z" transform="translate(-350.93 -168.533)" fill="#162447"></path></g><g id="blue" transform="translate(168.508 181.764)"><path id="Path_249" data-name="Path 249" d="M255.086,251.475v-3c0-.443-.2-.759-.709-.759a1.263,1.263,0,0,0-.985.552v3.209h-1.26v-3c0-.443-.2-.759-.709-.759a1.3,1.3,0,0,0-.985.552v3.209h-1.25V246.72h1.25v.611a2.13,2.13,0,0,1,1.555-.729,1.254,1.254,0,0,1,1.319.856,2.036,2.036,0,0,1,1.634-.856,1.269,1.269,0,0,1,1.4,1.437v3.436Z" transform="translate(-249.189 -244.721)" fill="#139be8"></path><path id="Path_250" data-name="Path 250" d="M285.9,251.475v-.5a1.939,1.939,0,0,1-1.506.62,1.576,1.576,0,0,1-1.644-1.575,1.508,1.508,0,0,1,1.644-1.536,1.941,1.941,0,0,1,1.506.581v-.6c0-.482-.413-.8-1.044-.8a2,2,0,0,0-1.369.561l-.492-.876a3.07,3.07,0,0,1,2.077-.748c1.093,0,2.087.433,2.087,1.8v3.072Zm0-1.142v-.591a1.258,1.258,0,0,0-1-.423c-.492,0-.9.266-.9.719s.4.709.9.709A1.25,1.25,0,0,0,285.9,250.333Z" transform="translate(-271.149 -244.721)" fill="#139be8"></path><path id="Path_251" data-name="Path 251" d="M309.181,251.475V246.72h1.25v.64a2.086,2.086,0,0,1,1.516-.758v1.221a1.616,1.616,0,0,0-1.516.512v3.141Z" transform="translate(-288.449 -244.721)" fill="#139be8"></path><path id="Path_252" data-name="Path 252" d="M332.629,248.268l-1.26-1.831-.571.611v1.221h-1.25V241.7h1.25v3.928l1.8-2.117h1.536l-1.88,2.156,1.939,2.6Z" transform="translate(-301.776 -241.514)" fill="#139be8"></path><path id="Path_253" data-name="Path 253" d="M353.845,249.093a2.426,2.426,0,0,1,2.461-2.491,2.376,2.376,0,0,1,2.382,2.608v.3h-3.534a1.275,1.275,0,0,0,1.369,1.063,1.987,1.987,0,0,0,1.26-.463l.561.827a2.964,2.964,0,0,1-1.959.659A2.408,2.408,0,0,1,353.845,249.093Zm2.461-1.467a1.1,1.1,0,0,0-1.162,1.014h2.343A1.09,1.09,0,0,0,356.306,247.626Z" transform="translate(-317.677 -244.721)" fill="#139be8"></path><path id="Path_254" data-name="Path 254" d="M379.843,248.046v-2.471h-.787v-1.093h.787v-1.3h1.25v1.3h.965v1.093h-.965v2.136c0,.306.158.532.433.532a.628.628,0,0,0,.433-.148l.266.955a1.545,1.545,0,0,1-1.044.305A1.184,1.184,0,0,1,379.843,248.046Z" transform="translate(-334.176 -242.484)" fill="#139be8"></path><path id="Path_255" data-name="Path 255" d="M399.992,241.9a.743.743,0,0,1,1.487,0,.743.743,0,1,1-1.487,0Zm.118,6.015v-4.755h1.25v4.755Z" transform="translate(-347.877 -241.16)" fill="#139be8"></path><path id="Path_256" data-name="Path 256" d="M420.862,251.475V248.6a.772.772,0,0,0-.876-.886,1.39,1.39,0,0,0-1.083.552v3.209h-1.25V246.72h1.25v.611a2.223,2.223,0,0,1,1.664-.729,1.386,1.386,0,0,1,1.556,1.516v3.357Z" transform="translate(-359.434 -244.721)" fill="#139be8"></path><path id="Path_257" data-name="Path 257" d="M443.583,252.7l.561-.9a1.93,1.93,0,0,0,1.486.581,1.169,1.169,0,0,0,1.319-1.221V250.7a1.847,1.847,0,0,1-1.477.738,2.441,2.441,0,0,1,0-4.834,1.822,1.822,0,0,1,1.477.729v-.611h1.25v4.44c0,1.8-1.4,2.245-2.57,2.245A2.9,2.9,0,0,1,443.583,252.7Zm3.367-2.9v-1.546a1.408,1.408,0,0,0-1.073-.532,1.313,1.313,0,0,0,0,2.619A1.417,1.417,0,0,0,446.95,249.792Z" transform="translate(-376.268 -244.721)" fill="#139be8"></path><path id="Path_246" data-name="Path 246" d="M232.671,193.516c.622-.5,1.358-1.1,2.2-1.8,1.524-1.277,4.152-2.354,7.2-3.6a61.935,61.935,0,0,0,10.031-4.857c3.986-2.557,6.361-7.929,7.493-11.187a47.156,47.156,0,0,1-8.287,3.918,59.068,59.068,0,0,0-9.524,4.483C236.819,183.495,233.973,189.829,232.671,193.516Z" transform="translate(-238.379 -195.949)" fill="#139be8"></path></g></g></svg>